# xmcd
#
# Track frame offsets:
#	150
#	29973
#	55610
#	72301
#	94190
#	110628
#	122188
#	146426
#	168074
#	186538
#	209467
#
# Disc length: 2990 seconds
#
# Revision: 1
# Processed by: cddbd v1.5.1PL0 Copyright (c) Steve Scherf et al.
# Submitted via: audiograbber 1.83.01
#
DISCID=a80bac0b
DTITLE=Tow Waits - Small Change
DYEAR=1900
DGENRE=Blues
TTITLE0=Tom Traubert's Blues
TTITLE1=Step Right Up
TTITLE2=Jitterburg Boys
TTITLE3=I Wish I Was in New Orlreans
TTITLE4=The Piano Has Been Drinking (Not Me)
TTITLE5=Invitation To The Blues
TTITLE6=Pasties And A G-String
TTITLE7=Bad Liver And A Broken Heart
TTITLE8=The One That Got Away
TTITLE9=Small Change
TTITLE10=I Can't Wait To Get Off Work
EXTD=
EXTT0=
EXTT1=
EXTT2=
EXTT3=
EXTT4=
EXTT5=
EXTT6=
EXTT7=
EXTT8=
EXTT9=
EXTT10=
PLAYORDER=
